<?xml version="1.0" encoding="UTF-8"?>
<!DOCTYPE svg PUBLIC "-//W3C//DTD SVG 1.1//EN" "http://www.w3.org/Graphics/SVG/1.1/DTD/svg11.dtd">
<!-- Creator: CorelDRAW 2021 (64-Bit) -->
<svg xmlns="http://www.w3.org/2000/svg" xml:space="preserve" width="411.004mm" height="61.2305mm" version="1.1" style="shape-rendering:geometricPrecision; text-rendering:geometricPrecision; image-rendering:optimizeQuality; fill-rule:evenodd; clip-rule:evenodd"
viewBox="0 0 11603.33 1728.64"
 xmlns:xlink="http://www.w3.org/1999/xlink"
 xmlns:xodm="http://www.corel.com/coreldraw/odm/2003">
 <defs>
  <style type="text/css">
   <![CDATA[
    .fil0 {fill:#CE0F80;fill-rule:nonzero}
   ]]>
  </style>
 </defs>
 <g id="Brand_x0020_Manual">
  <metadata id="CorelCorpID_0Corel-Layer"/>
  <g id="_1563037077200">
   <path class="fil0" d="M580.26 416.05c-8.31,-1.49 -18.26,-1.04 -28.21,1.04 -33.55,1.63 -124.11,6.83 -235.76,21.97 -141.34,18.86 -243.48,84.92 -286.53,144.01 -42.91,59.23 -44.98,148.76 31.03,150.84 75.87,2.23 101.55,-38.16 101.55,-38.16 0,0 -13.07,8.91 -48.69,9.95 -35.63,1.04 -83.88,-103.78 50.33,-192.26 102.15,-66.96 231.9,-60.13 288.47,-53.45 -87.45,62.95 -167.46,189.59 -248.68,365.67 -118.92,257.73 -197.01,309.55 -197.01,309.55 64.43,-20.48 171.77,-63.99 269.32,-283.42 92.04,-223.14 176.37,-333.01 232.94,-386.45 72.9,1.04 271.39,0.44 332.11,-42.46 0,0 -222.55,-0.6 -260.25,-7.28l-0.6 0.45zm1.48 493.35c5.79,-45.58 33.55,-110.46 60.87,-165.98 0,0 0,0 0,0 11.43,-21.98 50.18,-106.9 -21.53,-111.05 -39.79,-3.11 -89.08,39.79 -89.08,39.79l-21.97 18.86c49.29,-111.5 103.18,-219.43 103.18,-219.43l-80.62 16.19c0,0 -67.11,147.28 -120.56,264.56l-105.26 247.78 83.88 -21.08 92.64 -226.7c1.63,-4.15 3.12,-8.46 4.75,-12.62 18.85,-20.93 52.41,-55.97 69.63,-62.36 16.78,-6.23 33.55,17.81 20.93,49.89 -14.7,28.8 -31.92,64.87 -50.78,106.74 -51.36,114.17 -38.3,166.58 20.49,166.58 25.09,0 64.88,-19.89 102,-42.46 -35.48,14.25 -74.38,-5.64 -69.03,-47.06l0.44 -1.64zm346.23 -248.23c-9.95,-44.54 -55.53,-32.96 -87.89,-18.26 -9.5,4.16 -20.49,9.95 -32.52,17.81 -0.44,0.45 -1.04,1.04 -1.04,1.04l0 0c-37.71,25.09 -85.96,72.15 -129.31,160.79 -88.64,180.09 52.26,217.36 180.08,131.39 0,0 -130.35,26.28 -128.87,-43.5 0.6,-23.45 6.38,-49.73 17.37,-78.53 49.14,-26.13 196.42,-111.05 182.76,-170.14l-0.59 -0.59zm-98.44 26.72c12.03,3.12 21.53,12.02 15.29,36.08 -8.91,33.55 -53,59.23 -83.88,73.34 16.18,-33.4 38.75,-70.07 68.15,-109.41l0.44 0z"/>
   <path class="fil0" d="M1965.78 983.04c0,-116.85 -87.19,-213.31 -196.62,-213.31l-428.21 0c-18.57,0 -33.62,15.06 -33.62,33.63l0 357.49c0,18.57 15.05,33.62 33.62,33.62l428.21 0c109.44,0 196.62,-94.58 196.62,-211.43zm-237.41 -374.69c98.28,0 178.05,-87.14 178.05,-192.88 0,-105.73 -79.77,-192.88 -178.05,-192.88l-387.43 0c-18.57,0 -33.62,15.06 -33.62,33.63l0 318.51c0,18.59 15.05,33.62 33.62,33.62l387.43 0zm-606.52 -515.38c0,-18.57 15.06,-33.62 33.63,-33.62l580.3 0c196.61,0 356.12,159.51 356.12,346.85 0,97.46 -45.15,181.99 -116.08,240.75 -18.76,15.52 -16.62,43.87 4.44,56.13 102.72,59.76 171,165.43 171,289.22 0,198.46 -168.77,365.38 -374.67,365.38l-621.11 0c-18.57,0 -33.63,-15.04 -33.63,-33.63l0 -1231.08z"/>
   <path class="fil0" d="M3056 823.52c22.64,0 39.15,-22.08 32.39,-43.7 -41.61,-133.15 -157.89,-227.1 -295.35,-227.1 -142.08,0 -261.56,94.89 -306.86,226.31 -7.51,21.73 9.11,44.49 32.12,44.49l537.71 0zm-765.62 70.47c0,-272.64 226.29,-493.35 502.66,-493.35 272.64,0 491.5,220.71 491.5,493.35 0,12.7 -1.2,26.57 -2.57,40.28 -1.74,17.18 -16.21,30.21 -33.47,30.21l-730.78 0c-22.88,0 -39.44,22.49 -32.24,44.18 44.05,132.87 165.2,226.62 307.56,226.62 92.8,0 174.06,-41.35 231.24,-108.42 6.42,-7.53 15.59,-12.14 25.5,-12.14l124.69 0c26.44,0 43.12,29.51 28.63,51.63 -87.13,132.99 -236.86,221 -410.05,221 -276.36,0 -502.66,-220.71 -502.66,-493.37z"/>
   <path class="fil0" d="M3924.46 1229.71c179.91,0 326.43,-150.24 326.43,-335.71 0,-185.47 -146.52,-335.69 -326.43,-335.69 -179.91,0 -326.45,150.22 -326.45,335.69 0,183.62 146.54,335.71 326.45,335.71zm-502.65 -335.71c0,-272.64 226.29,-493.37 487.79,-493.37 119.13,0 225.4,46.63 305.01,123.26 21.34,20.56 56.7,5.64 56.7,-23.99l0 -35.98c0,-18.57 15.06,-33.63 33.63,-33.63l90.39 0c18.57,0 33.62,15.06 33.62,33.63l0 860.14c0,18.57 -15.05,33.63 -33.62,33.63l-90.39 0c-18.57,0 -33.63,-15.06 -33.63,-33.63l0 -35.96c0,-29.63 -35.36,-44.55 -56.7,-24.01 -79.6,76.63 -185.88,123.26 -305.01,123.26 -261.5,0 -487.79,-220.7 -487.79,-493.35z"/>
   <path class="fil0" d="M4673.81 1038.68l0 -574.75c0,-18.59 15.05,-33.62 33.62,-33.62l108.96 0c18.57,0 33.63,15.03 33.63,33.62l0 563.61c0,111.28 116.85,202.16 259.66,202.16 142.79,0 259.67,-90.89 259.67,-202.16l0 -563.61c0,-18.59 15.06,-33.62 33.62,-33.62l108.96 0c18.57,0 33.62,15.03 33.62,33.62l0 860.14c0,18.57 -15.06,33.62 -33.62,33.62l-90.41 0c-18.57,0 -33.63,-15.06 -33.63,-33.62l0 -0.02c0,-28.99 -33.62,-43.71 -55.8,-25.07 -66.45,55.87 -152,88.38 -248.37,88.38 -211.45,0 -409.91,-155.8 -409.91,-348.68z"/>
   <path class="fil0" d="M5929.51 1086.89l0 -470.87c0,-18.57 -15.06,-33.62 -33.63,-33.62l-138.62 0c-18.57,0 -33.63,-15.06 -33.63,-33.62l0 -84.85c0,-18.57 15.06,-33.63 33.63,-33.63l138.62 0c18.57,0 33.63,-15.06 33.63,-33.62l0 -177.58c0,-18.57 15.05,-33.62 33.62,-33.62l108.96 0c18.57,0 33.63,15.05 33.63,33.62l0 177.58c0,18.56 15.05,33.62 33.62,33.62l203.54 0c18.56,0 33.62,15.06 33.62,33.63l0 84.85c0,18.57 -15.06,33.62 -33.62,33.62l-203.54 0c-18.57,0 -33.62,15.06 -33.62,33.62l0 470.87c0,66.78 57.5,118.7 127.99,118.7l109.17 0c18.56,0 33.62,15.06 33.62,33.63l0 84.85c0,18.57 -15.06,33.62 -33.62,33.62l-109.17 0c-168.77,0 -304.19,-113.15 -304.19,-270.8z"/>
   <path class="fil0" d="M6547.11 1610.19c0,-18.57 15.05,-33.63 33.62,-33.63l109.17 0c72.37,0 105.74,-51.94 133.57,-118.71l42.95 -104.07c3.37,-8.19 3.37,-17.37 0.04,-25.56l-348.61 -851.56c-9.07,-22.12 7.2,-46.36 31.11,-46.36l108.8 0c13.81,0 26.21,8.43 31.29,21.27l242.24 613.6c11.19,28.36 51.34,28.36 62.54,0l242.27 -613.6c5.08,-12.84 17.47,-21.27 31.27,-21.27l95.89 0c23.88,0 40.15,24.2 31.14,46.32l-400.3 981.22c-63.08,153.93 -137.25,270.79 -304.2,270.79l-109.17 0c-18.57,0 -33.62,-15.06 -33.62,-33.63l0 -84.83z"/>
   <path class="fil0" d="M7522.74 708.53c0,-374.65 307.9,-678.84 686.27,-678.84 280.84,0 519.04,172.27 620.43,416.47 9.31,22.41 -6.71,47.21 -30.98,47.21l-117.7 0c-12.87,0 -24.3,-7.57 -29.99,-19.13 -81.59,-165.74 -248.71,-277.64 -439.92,-277.64 -278.2,0 -502.62,230 -502.62,511.92 0,281.92 224.42,511.92 502.62,511.92 191.2,0 358.27,-113.59 439.9,-277.77 5.71,-11.48 17.1,-18.99 29.94,-18.99l119.32 0c24.34,0 40.39,24.98 30.9,47.39 -103.18,244.13 -342.89,416.3 -621.9,416.3 -378.37,0 -686.27,-304.2 -686.27,-678.84z"/>
   <path class="fil0" d="M9071.74 0l108.96 0c18.56,0 33.62,15.06 33.62,33.63l0 1290.43c0,18.57 -15.06,33.62 -33.62,33.62l-108.96 0c-18.57,0 -33.62,-15.05 -33.62,-33.62l0 -1290.43c0,-18.57 15.06,-33.63 33.62,-33.63z"/>
   <path class="fil0" d="M9461.02 1038.68l0 -574.75c0,-18.59 15.06,-33.62 33.63,-33.62l108.96 0c18.57,0 33.62,15.03 33.62,33.62l0 563.61c0,111.28 116.83,202.16 259.67,202.16 142.81,0 259.64,-90.89 259.64,-202.16l0 -563.61c0,-18.59 15.06,-33.62 33.63,-33.62l108.95 0c18.57,0 33.62,15.03 33.62,33.62l0 860.14c0,18.57 -15.05,33.62 -33.62,33.62l-90.41 0c-18.57,0 -33.62,-15.06 -33.62,-33.62 0,-28.99 -33.64,-43.72 -55.82,-25.08 -66.42,55.88 -151.96,88.36 -248.33,88.36 -211.45,0 -409.91,-155.8 -409.91,-348.68z"/>
   <path class="fil0" d="M11098.81 1229.71c179.91,0 326.45,-152.09 326.45,-335.71 0,-185.47 -146.54,-335.69 -326.45,-335.69 -179.92,0 -326.41,150.22 -326.41,335.69 0,185.47 146.5,335.71 326.41,335.71zm-345 58.64l0 35.7c0,18.57 -15.04,33.63 -33.6,33.63l-90.39 0c-18.57,0 -33.63,-15.06 -33.63,-33.63l0 -1290.43c0,-18.57 15.06,-33.62 33.63,-33.62l108.95 0c18.57,0 33.62,15.05 33.62,33.62l0 448.65c0,28.68 33.51,44.08 55.26,25.38 77.91,-66.96 176.98,-107.03 287.87,-107.03 261.52,0 487.81,220.74 487.81,493.37 0,272.66 -226.29,493.35 -487.81,493.35 -119.59,0 -225.04,-46.98 -305.22,-123.23 -21.37,-20.3 -56.5,-5.27 -56.5,24.23z"/>
  </g>
 </g>
</svg>
